<?xml version="1.0" encoding="UTF-8"?>
<svg id="Layer_1" xmlns="http://www.w3.org/2000/svg" xmlns:xlink="http://www.w3.org/1999/xlink" version="1.1" viewBox="0 0 210 76">
  <!-- Generator: Adobe Illustrator 29.3.1, SVG Export Plug-In . SVG Version: 2.1.0 Build 151)  -->
  <defs>
    <style>
      .st0 {
        fill: #1e2a78;
      }
    </style>
  </defs>
  <path class="st0" d="M31.6,9c-3,0-5.2.8-6.7,2.4-1.5,1.6-2.2,4.2-2.2,7.8v5.1h13.4v8.6h-13.4v41.4h-10.8v-41.4H3.6v-8.6h8.4v-5.5c0-5.7,1.6-10.2,4.8-13.4,3.2-3.3,7.7-4.9,13.5-4.9s2.2,0,3.3.3c1.1.2,2,.4,2.5.6v8.3c-1.1-.4-2.6-.7-4.5-.7Z"/>
  <path class="st0" d="M55.9,64.7c1,1.1,2.5,1.7,4.5,1.7s2.2-.2,3.1-.5v8.6c-1.2.5-2.9.8-5.1.8-4.7,0-8.3-1.3-10.8-3.8-2.6-2.6-3.8-6.3-3.8-11.2V1.5h10.8v57.9c0,2.4.5,4.2,1.4,5.3Z"/>
  <path class="st0" d="M114.1,63.1c-2,4-4.9,7-8.6,9.2-3.7,2.2-7.9,3.3-12.7,3.3s-9-1.1-12.7-3.3c-3.7-2.2-6.5-5.2-8.6-9.2-2-4-3.1-8.6-3.1-13.8s1-9.7,3.1-13.7c2.1-3.9,5-7,8.6-9.1,3.7-2.1,7.9-3.2,12.6-3.2s8.9,1.1,12.6,3.2c3.7,2.1,6.6,5.2,8.6,9.1,2.1,3.9,3.1,8.5,3.1,13.7s-1,9.9-3.1,13.8ZM102.6,36.7c-2.4-2.9-5.6-4.4-9.8-4.4s-7.4,1.5-9.8,4.4c-2.4,2.9-3.6,7.2-3.6,12.7s1.2,9.7,3.6,12.6c2.4,2.9,5.6,4.4,9.8,4.4s7.4-1.5,9.8-4.4c2.4-2.9,3.6-7.1,3.6-12.6s-1.2-9.7-3.6-12.7Z"/>
  <path class="st0" d="M179.9,74.4h-11.4l-10.3-36.8h-.2l-10.6,36.8h-11.5l-13.8-50h11l9.1,37.2h.2l10.3-37.2h11.3l10,37.2h.2l9.4-37.2h10.6l-14.3,50Z"/>
</svg>